<mxfile host="app.diagrams.net" modified="2022-07-19T12:09:06.670Z" agent="5.0 (Macintosh; Intel Mac OS X 10_13_6) AppleWebKit/537.36 (KHTML, like Gecko) Chrome/103.0.0.0 Safari/537.36" etag="2jFsiX7noiR4C5tmriAR" version="20.1.1" type="github">
  <diagram id="TjTDhroIT3lP44HjiIO4" name="第 1 页">
    <mxGraphModel dx="1260" dy="856" grid="0" gridSize="10" guides="0" tooltips="1" connect="1" arrows="1" fold="1" page="1" pageScale="1" pageWidth="827" pageHeight="1169" math="0" shadow="0">
      <root>
        <mxCell id="0" />
        <mxCell id="1" parent="0" />
        <mxCell id="P6r-19Y9rercEipICCG8-2" value="" style="rounded=0;whiteSpace=wrap;html=1;fillColor=#ffe6cc;strokeColor=#d79b00;" vertex="1" parent="1">
          <mxGeometry x="30" y="80" width="450" height="310" as="geometry" />
        </mxCell>
        <mxCell id="P6r-19Y9rercEipICCG8-18" value="" style="rounded=0;orthogonalLoop=1;jettySize=auto;html=1;" edge="1" parent="1" source="P6r-19Y9rercEipICCG8-1" target="P6r-19Y9rercEipICCG8-9">
          <mxGeometry relative="1" as="geometry" />
        </mxCell>
        <mxCell id="P6r-19Y9rercEipICCG8-20" value="" style="rounded=0;orthogonalLoop=1;jettySize=auto;html=1;" edge="1" parent="1" source="P6r-19Y9rercEipICCG8-1" target="P6r-19Y9rercEipICCG8-19">
          <mxGeometry relative="1" as="geometry" />
        </mxCell>
        <mxCell id="P6r-19Y9rercEipICCG8-22" style="rounded=0;orthogonalLoop=1;jettySize=auto;html=1;" edge="1" parent="1" source="P6r-19Y9rercEipICCG8-1" target="P6r-19Y9rercEipICCG8-21">
          <mxGeometry relative="1" as="geometry" />
        </mxCell>
        <mxCell id="P6r-19Y9rercEipICCG8-1" value="User" style="ellipse;whiteSpace=wrap;html=1;aspect=fixed;fillColor=#ffe6cc;strokeColor=#d79b00;" vertex="1" parent="1">
          <mxGeometry x="170" y="170" width="80" height="80" as="geometry" />
        </mxCell>
        <mxCell id="P6r-19Y9rercEipICCG8-3" value="&lt;font style=&quot;font-size: 16px;&quot;&gt;A 源&lt;/font&gt;" style="text;html=1;strokeColor=none;fillColor=none;align=center;verticalAlign=middle;whiteSpace=wrap;rounded=0;" vertex="1" parent="1">
          <mxGeometry x="200" y="30" width="60" height="30" as="geometry" />
        </mxCell>
        <mxCell id="P6r-19Y9rercEipICCG8-4" value="" style="rounded=0;whiteSpace=wrap;html=1;fillColor=#f8cecc;strokeColor=#b85450;" vertex="1" parent="1">
          <mxGeometry x="30" y="460" width="470" height="360" as="geometry" />
        </mxCell>
        <mxCell id="P6r-19Y9rercEipICCG8-5" value="&lt;font style=&quot;font-size: 16px;&quot;&gt;B 源&lt;/font&gt;" style="text;html=1;strokeColor=none;fillColor=none;align=center;verticalAlign=middle;whiteSpace=wrap;rounded=0;" vertex="1" parent="1">
          <mxGeometry x="200" y="420" width="60" height="30" as="geometry" />
        </mxCell>
        <mxCell id="P6r-19Y9rercEipICCG8-6" value="" style="rounded=0;whiteSpace=wrap;html=1;fillColor=#d5e8d4;strokeColor=#82b366;" vertex="1" parent="1">
          <mxGeometry x="580" y="110" width="430" height="560" as="geometry" />
        </mxCell>
        <mxCell id="P6r-19Y9rercEipICCG8-7" value="&lt;font style=&quot;font-size: 16px;&quot;&gt;SID&lt;/font&gt;" style="text;html=1;strokeColor=none;fillColor=none;align=center;verticalAlign=middle;whiteSpace=wrap;rounded=0;" vertex="1" parent="1">
          <mxGeometry x="820" y="40" width="60" height="30" as="geometry" />
        </mxCell>
        <mxCell id="P6r-19Y9rercEipICCG8-12" value="" style="rounded=0;orthogonalLoop=1;jettySize=auto;html=1;" edge="1" parent="1" source="P6r-19Y9rercEipICCG8-8" target="P6r-19Y9rercEipICCG8-11">
          <mxGeometry relative="1" as="geometry" />
        </mxCell>
        <mxCell id="P6r-19Y9rercEipICCG8-17" value="" style="rounded=0;orthogonalLoop=1;jettySize=auto;html=1;" edge="1" parent="1" source="P6r-19Y9rercEipICCG8-8" target="P6r-19Y9rercEipICCG8-16">
          <mxGeometry relative="1" as="geometry" />
        </mxCell>
        <mxCell id="P6r-19Y9rercEipICCG8-26" value="" style="rounded=0;orthogonalLoop=1;jettySize=auto;html=1;" edge="1" parent="1" source="P6r-19Y9rercEipICCG8-8" target="P6r-19Y9rercEipICCG8-25">
          <mxGeometry relative="1" as="geometry" />
        </mxCell>
        <mxCell id="P6r-19Y9rercEipICCG8-8" value="学生/老师" style="ellipse;whiteSpace=wrap;html=1;aspect=fixed;fillColor=#f8cecc;strokeColor=#b85450;" vertex="1" parent="1">
          <mxGeometry x="190" y="560" width="80" height="80" as="geometry" />
        </mxCell>
        <mxCell id="P6r-19Y9rercEipICCG8-9" value="name" style="ellipse;whiteSpace=wrap;html=1;aspect=fixed;fillColor=#ffe6cc;strokeColor=#d79b00;" vertex="1" parent="1">
          <mxGeometry x="380" y="90" width="80" height="80" as="geometry" />
        </mxCell>
        <mxCell id="P6r-19Y9rercEipICCG8-11" value="姓名" style="ellipse;whiteSpace=wrap;html=1;aspect=fixed;fillColor=#f8cecc;strokeColor=#b85450;" vertex="1" parent="1">
          <mxGeometry x="360" y="460" width="80" height="80" as="geometry" />
        </mxCell>
        <mxCell id="P6r-19Y9rercEipICCG8-15" value="" style="rounded=0;orthogonalLoop=1;jettySize=auto;html=1;" edge="1" parent="1" source="P6r-19Y9rercEipICCG8-13" target="P6r-19Y9rercEipICCG8-14">
          <mxGeometry relative="1" as="geometry" />
        </mxCell>
        <mxCell id="P6r-19Y9rercEipICCG8-28" value="" style="rounded=0;orthogonalLoop=1;jettySize=auto;html=1;" edge="1" parent="1" source="P6r-19Y9rercEipICCG8-13" target="P6r-19Y9rercEipICCG8-27">
          <mxGeometry relative="1" as="geometry" />
        </mxCell>
        <mxCell id="P6r-19Y9rercEipICCG8-29" value="" style="rounded=0;orthogonalLoop=1;jettySize=auto;html=1;" edge="1" parent="1" source="P6r-19Y9rercEipICCG8-13" target="P6r-19Y9rercEipICCG8-14">
          <mxGeometry relative="1" as="geometry" />
        </mxCell>
        <mxCell id="P6r-19Y9rercEipICCG8-31" value="" style="rounded=0;orthogonalLoop=1;jettySize=auto;html=1;" edge="1" parent="1" source="P6r-19Y9rercEipICCG8-13" target="P6r-19Y9rercEipICCG8-30">
          <mxGeometry relative="1" as="geometry" />
        </mxCell>
        <mxCell id="P6r-19Y9rercEipICCG8-13" value="User" style="ellipse;whiteSpace=wrap;html=1;aspect=fixed;fillColor=#d5e8d4;strokeColor=#82b366;" vertex="1" parent="1">
          <mxGeometry x="800" y="350" width="80" height="80" as="geometry" />
        </mxCell>
        <mxCell id="P6r-19Y9rercEipICCG8-14" value="XM" style="ellipse;whiteSpace=wrap;html=1;aspect=fixed;fillColor=#d5e8d4;strokeColor=#82b366;" vertex="1" parent="1">
          <mxGeometry x="650" y="350" width="80" height="80" as="geometry" />
        </mxCell>
        <mxCell id="P6r-19Y9rercEipICCG8-16" value="学号" style="ellipse;whiteSpace=wrap;html=1;aspect=fixed;fillColor=#f8cecc;strokeColor=#b85450;" vertex="1" parent="1">
          <mxGeometry x="340" y="690" width="80" height="80" as="geometry" />
        </mxCell>
        <mxCell id="P6r-19Y9rercEipICCG8-19" value="xuehao" style="ellipse;whiteSpace=wrap;html=1;aspect=fixed;fillColor=#ffe6cc;strokeColor=#d79b00;" vertex="1" parent="1">
          <mxGeometry x="360" y="300" width="80" height="80" as="geometry" />
        </mxCell>
        <mxCell id="P6r-19Y9rercEipICCG8-21" value="xinbie" style="ellipse;whiteSpace=wrap;html=1;aspect=fixed;fillColor=#ffe6cc;strokeColor=#d79b00;" vertex="1" parent="1">
          <mxGeometry x="380" y="190" width="80" height="80" as="geometry" />
        </mxCell>
        <mxCell id="P6r-19Y9rercEipICCG8-25" value="性别" style="ellipse;whiteSpace=wrap;html=1;aspect=fixed;fillColor=#f8cecc;strokeColor=#b85450;" vertex="1" parent="1">
          <mxGeometry x="340" y="570" width="80" height="80" as="geometry" />
        </mxCell>
        <mxCell id="P6r-19Y9rercEipICCG8-27" value="XGH" style="ellipse;whiteSpace=wrap;html=1;aspect=fixed;fillColor=#d5e8d4;strokeColor=#82b366;" vertex="1" parent="1">
          <mxGeometry x="650" y="490" width="80" height="80" as="geometry" />
        </mxCell>
        <mxCell id="P6r-19Y9rercEipICCG8-30" value="XB" style="ellipse;whiteSpace=wrap;html=1;aspect=fixed;fillColor=#d5e8d4;strokeColor=#82b366;" vertex="1" parent="1">
          <mxGeometry x="630" y="210" width="80" height="80" as="geometry" />
        </mxCell>
        <mxCell id="P6r-19Y9rercEipICCG8-32" value="" style="endArrow=classic;html=1;fontSize=16;curved=1;strokeColor=#FF3333;dashed=1;strokeWidth=8;" edge="1" parent="1" source="P6r-19Y9rercEipICCG8-1" target="P6r-19Y9rercEipICCG8-13">
          <mxGeometry width="50" height="50" relative="1" as="geometry">
            <mxPoint x="140" y="80" as="sourcePoint" />
            <mxPoint x="190" y="30" as="targetPoint" />
            <Array as="points">
              <mxPoint x="570" y="150" />
              <mxPoint x="840" y="170" />
            </Array>
          </mxGeometry>
        </mxCell>
        <mxCell id="P6r-19Y9rercEipICCG8-40" value="实体链接" style="edgeLabel;html=1;align=center;verticalAlign=middle;resizable=0;points=[];fontSize=16;" vertex="1" connectable="0" parent="P6r-19Y9rercEipICCG8-32">
          <mxGeometry x="-0.0068" y="-11" relative="1" as="geometry">
            <mxPoint as="offset" />
          </mxGeometry>
        </mxCell>
        <mxCell id="P6r-19Y9rercEipICCG8-33" value="" style="endArrow=classic;html=1;fontSize=16;curved=1;strokeColor=#FF3333;dashed=1;strokeWidth=8;" edge="1" parent="1" source="P6r-19Y9rercEipICCG8-8" target="P6r-19Y9rercEipICCG8-13">
          <mxGeometry width="50" height="50" relative="1" as="geometry">
            <mxPoint x="258.4679627369767" y="230.9642985578821" as="sourcePoint" />
            <mxPoint x="811.5390420943672" y="389.0111548841048" as="targetPoint" />
            <Array as="points">
              <mxPoint x="540" y="610" />
              <mxPoint x="810" y="600" />
            </Array>
          </mxGeometry>
        </mxCell>
        <mxCell id="P6r-19Y9rercEipICCG8-41" value="实体链接" style="edgeLabel;html=1;align=center;verticalAlign=middle;resizable=0;points=[];fontSize=16;" vertex="1" connectable="0" parent="P6r-19Y9rercEipICCG8-33">
          <mxGeometry x="-0.1669" y="19" relative="1" as="geometry">
            <mxPoint as="offset" />
          </mxGeometry>
        </mxCell>
        <mxCell id="P6r-19Y9rercEipICCG8-34" value="" style="endArrow=classic;html=1;fontSize=16;strokeColor=#66FF66;dashed=1;strokeWidth=4;" edge="1" parent="1" source="P6r-19Y9rercEipICCG8-11" target="P6r-19Y9rercEipICCG8-14">
          <mxGeometry width="50" height="50" relative="1" as="geometry">
            <mxPoint x="279.9221031393158" y="612.4951314462073" as="sourcePoint" />
            <mxPoint x="821.5390420943672" y="399.0111548841048" as="targetPoint" />
          </mxGeometry>
        </mxCell>
        <mxCell id="P6r-19Y9rercEipICCG8-35" value="" style="endArrow=classic;html=1;fontSize=16;strokeColor=#66FF66;dashed=1;strokeWidth=4;rounded=1;" edge="1" parent="1" source="P6r-19Y9rercEipICCG8-16" target="P6r-19Y9rercEipICCG8-27">
          <mxGeometry width="50" height="50" relative="1" as="geometry">
            <mxPoint x="407.9473319220199" y="527.3508893593266" as="sourcePoint" />
            <mxPoint x="644.2229123600036" y="417.88854381999795" as="targetPoint" />
          </mxGeometry>
        </mxCell>
        <mxCell id="P6r-19Y9rercEipICCG8-36" value="" style="endArrow=classic;html=1;fontSize=16;strokeColor=#66FF66;dashed=1;strokeWidth=4;" edge="1" parent="1" source="P6r-19Y9rercEipICCG8-25" target="P6r-19Y9rercEipICCG8-30">
          <mxGeometry width="50" height="50" relative="1" as="geometry">
            <mxPoint x="406.47328629391086" y="523.5774731870347" as="sourcePoint" />
            <mxPoint x="643.5451760136589" y="416.4634688970573" as="targetPoint" />
          </mxGeometry>
        </mxCell>
        <mxCell id="P6r-19Y9rercEipICCG8-37" value="" style="endArrow=classic;html=1;fontSize=16;strokeColor=#66FF66;dashed=1;strokeWidth=4;" edge="1" parent="1" source="P6r-19Y9rercEipICCG8-21" target="P6r-19Y9rercEipICCG8-30">
          <mxGeometry width="50" height="50" relative="1" as="geometry">
            <mxPoint x="416.47328629391086" y="533.5774731870347" as="sourcePoint" />
            <mxPoint x="653.5451760136589" y="426.4634688970573" as="targetPoint" />
          </mxGeometry>
        </mxCell>
        <mxCell id="P6r-19Y9rercEipICCG8-38" value="" style="endArrow=classic;html=1;fontSize=16;strokeColor=#66FF66;dashed=1;strokeWidth=4;" edge="1" parent="1" source="P6r-19Y9rercEipICCG8-19" target="P6r-19Y9rercEipICCG8-27">
          <mxGeometry width="50" height="50" relative="1" as="geometry">
            <mxPoint x="426.47328629391086" y="543.5774731870347" as="sourcePoint" />
            <mxPoint x="663.5451760136589" y="436.4634688970573" as="targetPoint" />
          </mxGeometry>
        </mxCell>
        <mxCell id="P6r-19Y9rercEipICCG8-39" value="" style="endArrow=classic;html=1;fontSize=16;strokeColor=#66FF66;dashed=1;strokeWidth=4;" edge="1" parent="1" source="P6r-19Y9rercEipICCG8-9" target="P6r-19Y9rercEipICCG8-14">
          <mxGeometry width="50" height="50" relative="1" as="geometry">
            <mxPoint x="379.9167307293842" y="307.42034733381524" as="sourcePoint" />
            <mxPoint x="760.0847957613692" y="282.6031654938238" as="targetPoint" />
          </mxGeometry>
        </mxCell>
      </root>
    </mxGraphModel>
  </diagram>
</mxfile>
